HIERARCHY
ROOT Hips
{
	OFFSET	0.00	0.00	0.00
	CHANNELS 6 Xposition Yposition Zposition Zrotation Xrotation Yrotation
	JOINT Spine
	{
		OFFSET	 0.00	0.01	 0.00
		CHANNELS 3 Zrotation Xrotation Yrotation
		JOINT Spine1
		{
			OFFSET	 0.00	 2.45913012437421	 0.00
			CHANNELS 3 Zrotation Xrotation Yrotation
            JOINT Neck
            {
                OFFSET	 0.00	 2.48462964506057	 0.00
                CHANNELS 3 Zrotation Xrotation Yrotation
                JOINT Head
                {
                    OFFSET	 0.00	 0.927524780924562	 0.00
                    CHANNELS 3 Zrotation Xrotation Yrotation
                    End Site 
                    {
                        OFFSET	 0.00	 1.14999962169752	 0.00
                    }
                }
            }
			JOINT LeftShoulder
			{
				OFFSET	 0.00	 2.48462964506057	 0.00
				CHANNELS 3 Zrotation Xrotation Yrotation
				JOINT LeftUpArm
				{
					OFFSET	 0.00	 1.24881979654096	 0.00
					CHANNELS 3 Zrotation Xrotation Yrotation
					JOINT LeftForeArm
					{
						OFFSET	 0.00	2.59758046908119	 0.00
						CHANNELS 3 Zrotation Xrotation Yrotation
						JOINT LeftHand
						{
							OFFSET	 0.00	2.45542024364365	 0.00
							CHANNELS 3 Zrotation Xrotation Yrotation
							JOINT LeftHandThumb 
							{
								OFFSET	 0.00	0.00	 0.00
								CHANNELS 3 Zrotation Xrotation Yrotation
								End Site
								{
									OFFSET	 0.00	0.00	1.00000003353624
								}
							}
							JOINT L_Wrist_End 
							{
								OFFSET	 0.00	0.99999967115358	 0.00
								CHANNELS 3 Zrotation Xrotation Yrotation
								End Site 
								{
									OFFSET	 0.00	 0.00	 0.00
								}
							}
						}
					}
				}
			}
			JOINT RightShoulder
			{
				OFFSET	 0.00	 2.48462964506057	 0.00
				CHANNELS 3 Zrotation Xrotation Yrotation
				JOINT RightUpArm
				{
					OFFSET	 0.00	 1.24881979654096	 0.00
					CHANNELS 3 Zrotation Xrotation Yrotation
					JOINT RightForeArm
					{
						OFFSET	 0.00	2.59758046908119	 0.00
						CHANNELS 3 Zrotation Xrotation Yrotation
						JOINT RightHand
						{
							OFFSET	 0.00	2.45542024364365	 0.00
							CHANNELS 3 Zrotation Xrotation Yrotation
							JOINT RightHandThumb 
							{
								OFFSET	 0.00	0.00	 0.00
								CHANNELS 3 Zrotation Xrotation Yrotation
								End Site
								{
									OFFSET	 0.00	0.00	1.00000003353624
								}
							}
							JOINT R_Wrist_End 
							{
								OFFSET	 0.00	0.99999967115358	 0.00
								CHANNELS 3 Zrotation Xrotation Yrotation
								End Site 
								{
									OFFSET	 0.00	 0.00	 0.00
								}
							}
						}
					}
				}
			}
		}
	}
	JOINT LeftUpLeg
	{
		OFFSET	 1.2719394002717	 0.00	 0.00
		CHANNELS 3 Zrotation Xrotation Yrotation
		JOINT LeftLowLeg
		{
			OFFSET	 0.00	-4.3429100912261	 0.00
			CHANNELS 3 Zrotation Xrotation Yrotation
			JOINT LeftFoot
			{
				OFFSET	 0.00	-4.48767017425826	 0.00
				CHANNELS 3 Zrotation Xrotation Yrotation
				JOINT LeftToeBase
                {
                    OFFSET	 0.00	0.00	 1.51507020887566
                    CHANNELS 3 Zrotation Xrotation Yrotation
                    End Site 
                    {
                        OFFSET	 0.00	0.00	 0.75000010571191
                    }
                }
			}
		}
	}
	JOINT RightUpLeg
	{
		OFFSET	 -1.2719393604653	 0.00	 0.00
		CHANNELS 3 Zrotation Xrotation Yrotation
		JOINT RightLowLeg
		{
			OFFSET	 0.00	-4.3429100912261	 0.00
			CHANNELS 3 Zrotation Xrotation Yrotation
			JOINT RightFoot
			{
				OFFSET	 0.00	-4.48767017425826	 0.00
				CHANNELS 3 Zrotation Xrotation Yrotation
				JOINT RightToeBase
                {
                    OFFSET	 0.00	0.00	 1.51507020887566
                    CHANNELS 3 Zrotation Xrotation Yrotation
                    End Site 
                    {
                        OFFSET	 0.00	0.00	 0.749999965609858
                    }
                }   
			}
		}
	}
}
MOTION 
Frames:	10 
Frame Time: 0.02 
 -0.16894699096679688 11.50050048828125 10.499100341796876 -73.912 83.8231 75.3278 7.70672 -19.3533 3.90201 -8.22417 39.8085 0.0686685 7.42997 26.3758 0.799876 19.0607 -64.8158 15.1787 -115.4938 1.26996 -9.379 -34.5246 -1.44556 34.204 0.0 24.1459 0.0 6.21444 -8.67636 2.33074 0.0 0.0 0.0 0.0 0.0 0.0 122.4634 0.635884 0.181064 42.6595 5.65924 -15.987 0.0 21.7572 0.0 -2.42203 -3.85354 9.08229 0.0 0.0 0.0 0.0 0.0 0.0 2.09739 8.88676 18.8418 0.0 0.919051 0.0 -5.24866 6.65765 9.30311 0.0 -8.48203 0.0 4.68171 1.36154 12.2024 0.0 9.46614 0.0 20.6586 10.3029 -22.297 0.0 -10.39962 0.0 
  -0.13082300186157225 11.51949951171875 10.498599853515625 -74.3387 83.7868 75.7094 7.68302 -19.1627 3.89214 -8.33379 39.836 -0.0353651 7.32129 26.3105 1.00122 19.407 -64.9218 15.5601 -115.5161 1.17688 -9.46459 -34.3713 -0.824031 34.038 0.0 24.7614 0.0 6.26117 -8.48629 2.24921 0.0 0.0 0.0 0.0 0.0 0.0 122.5567 0.805015 -0.018201 42.4814 5.98573 -15.6912 0.0 21.9394 0.0 -2.83606 -3.8602 8.69467 0.0 0.0 0.0 0.0 0.0 0.0 1.91698 8.76981 18.7495 0.0 0.902818 0.0 -5.08785 6.6083 9.43331 0.0 -8.421209 0.0 4.54768 0.948103 12.0358 0.0 9.97522 0.0 20.8568 10.36945 -22.0621 0.0 -10.584 0.0 
  -0.0933866024017334 11.5375 10.498699951171876 -74.6605 83.7103 75.9723 7.70795 -19.0491 3.94768 -8.44508 40.0377 0.00121606 7.31425 25.99 1.01882 19.5749 -64.8959 15.6632 -115.4604 1.29365 -9.32636 -34.2315 -0.0150828 33.9768 0.0 25.365 0.0 6.70069 -8.27299 2.06965 0.0 0.0 0.0 0.0 0.0 0.0 122.5129 0.899289 -0.0545995 42.4466 6.27177 -15.5039 0.0 22.2135 0.0 -3.07597 -3.6696 8.9473 0.0 0.0 0.0 0.0 0.0 0.0 1.77157 8.69629 18.7559 0.0 0.858649 0.0 -4.86358 6.6119404 9.47207 0.0 -8.42705 0.0 4.46942 0.511431 12.0731 0.0 10.5678 0.0 21.2215 10.39491 -21.9835 0.0 -10.714251 0.0 
  -0.057356801033020016 11.55739990234375 10.499599609375 -75.2019 83.627 76.4672 7.69584 -18.9404 3.96903 -8.48759 40.2309 0.0716176 7.33072 25.7497 1.05287 19.795 -64.8438 15.7735 -115.4308 1.62089 -9.35059 -34.0309 0.552803 33.7632 0.0 26.1383 0.0 7.08774 -8.06566 1.99449 0.0 0.0 0.0 0.0 0.0 0.0 122.493805 0.990872 -0.0979379 42.3089 6.61483 -15.2579 0.0 22.5166 0.0 -2.70915 -3.89982 8.9342 0.0 0.0 0.0 0.0 0.0 0.0 1.64978 8.56062 18.8835 0.0 0.850899 0.0 -4.69888 6.6019 9.42768 0.0 -8.37155 0.0 4.41214 -0.0368714 11.9915 0.0 11.3061 0.0 21.6236 10.47754 -21.7806 0.0 -10.94493 0.0 
  -0.02324729919433594 11.57800048828125 10.501300048828124 -75.0776 83.5076 76.2784 7.71549 -18.7323 3.9986 -8.56201 40.3685 0.0544939 7.35121 25.5291 1.05478 19.9706 -64.8925 15.984 -115.3632 1.9386 -9.44134 -33.805 1.06801 33.6526 0.0 26.8632 0.0 7.72991 -7.84102 2.0937 0.0 0.0 0.0 0.0 0.0 0.0 122.497696 1.12689 -0.187195 42.1672 6.96515 -15.0429 0.0 22.9413 0.0 -3.16943 -3.62136 8.38352 0.0 0.0 0.0 0.0 0.0 0.0 1.56352 8.49362 18.763 0.0 0.87195 0.0 -4.54387 6.6008196 9.60354 0.0 -8.36186 0.0 4.40175 -0.586921 12.0488 0.0 12.1843 0.0 22.0645 10.583429 -21.652 0.0 -11.26149 0.0 
  0.009712089896202087 11.5997998046875 10.503399658203126 -75.0314 83.3794 76.2085 7.73472 -18.4987 3.95959 -8.64734 40.5021 -0.109889 7.2358 25.3168 1.29475 20.3485 -64.8507 16.331 -115.3187 1.95222 -9.34252 -33.5453 1.99826 33.4258 0.0 27.5505 0.0 8.36071 -7.53948 0.441766 0.0 0.0 0.0 0.0 0.0 0.0 122.5008 1.33505 -0.250124 42.0191 7.35563 -15.0052 0.0 23.3859 0.0 -3.5116 -3.29465 8.19335 0.0 0.0 0.0 0.0 0.0 0.0 1.51566 8.3611 18.6787 0.0 0.983648 0.0 -4.40395 6.5638504 9.7004 0.0 -8.33829 0.0 4.40237 -1.20166 11.9688 0.0 13.1671 0.0 22.506 10.74347 -21.3861 0.0 -11.69193 0.0 
  0.0413479995727539 11.619200439453126 10.505699462890625 -74.9972 83.2334 76.0789 7.68233 -18.3046 3.91556 -8.53577 40.5552 -0.0582139 7.24177 25.3034 1.26856 20.4133 -65.024 16.5486 -115.2629 2.38972 -9.32162 -33.3565 2.53127 33.1831 0.0 28.2832 0.0 8.9653 -7.40527 0.438066 0.0 0.0 0.0 0.0 0.0 0.0 122.4362 1.45389 -0.197778 41.774 7.58173 -14.9001 0.0 24.1022 0.0 -4.33805 -2.6824 9.71801 0.0 0.0 0.0 0.0 0.0 0.0 1.48116 8.29639 18.7716 0.0 1.02147 0.0 -4.21125 6.5976295 9.65249 0.0 -8.392731 0.0 4.44169 -1.85847 11.9894 0.0 14.2489 0.0 23.0054 10.90906 -21.1236 0.0 -12.29268 0.0 
  0.06824810028076173 11.638800048828125 10.511099853515624 -75.1018 83.0771 76.1216 6.91078 -18.7204 2.98152 -7.35983 41.3907 0.43728 6.35824 24.9285 1.6367 19.5258 -64.9252 15.38 -115.5744 3.31059 -9.55237 -33.3965 2.91755 32.8766 0.0 29.0113 0.0 9.4454 -7.26514 0.685485 0.0 0.0 0.0 0.0 0.0 0.0 121.320496 1.68729 0.281599 41.9379 7.77823 -14.8075 0.0 24.8385 0.0 -4.62163 -2.95201 9.25726 0.0 0.0 0.0 0.0 0.0 0.0 1.49494 8.20022 18.7278 0.0 1.07355 0.0 -4.15555 6.6421804 9.70696 0.0 -8.3399105 0.0 4.55434 -2.6023 12.0754 0.0 15.4542 0.0 23.5199 11.147181 -20.9961 0.0 -13.03849 0.0 
  0.09370779991149902 11.65489990234375 10.513299560546875 -74.6322 82.917 75.6124 6.6303 -18.5258 2.65546 -6.97442 41.4638 0.460973 5.95106 24.7379 1.97546 19.7143 -65.0937 15.4845 -115.7333 3.48944 -9.27961 -33.0447 3.855 32.5939 0.0 29.7528 0.0 9.67472 -6.74264 1.49097 0.0 0.0 0.0 0.0 0.0 0.0 121.1269 1.8091 0.161 41.651 8.17066 -14.8112 0.0 25.579 0.0 -4.83131 -2.97141 9.56304 0.0 0.0 0.0 0.0 0.0 0.0 1.4958 8.20916 18.7146 0.0 1.0878 0.0 -4.03971 6.6481895 9.71496 0.0 -8.32196 0.0 4.68155 -3.29949 12.0905 0.0 16.7505 0.0 24.0725 11.25134 -20.8389 0.0 -14.031132 0.0 
  0.11556599617004394 11.665 10.51510009765625 -74.5615 82.7464 75.3844 6.37723 -18.496 2.38367 -6.60277 41.6504 0.609676 5.60847 24.4448 2.17972 19.6604 -65.1393 15.296 -115.8001 3.67664 -9.23218 -32.7965 4.67863 32.5218 0.0 30.4633 0.0 10.1226 -6.55911 1.5792 0.0 0.0 0.0 0.0 0.0 0.0 120.8313 1.89383 0.201052 41.5298 8.45078 -14.3995 0.0 26.5114 0.0 -4.80939 -3.1754 9.28059 0.0 0.0 0.0 0.0 0.0 0.0 1.50488 8.27448 18.8066 0.0 1.00746 0.0 -3.94078 6.65022 9.74736 0.0 -8.29712 0.0 4.89908 -4.06515 12.1396 0.0 18.1389 0.0 24.6569 11.31283 -20.7901 0.0 -15.322026 0.0 
